<svg class="svg-icon" style="width: 1em; height: 1em;vertical-align: middle;fill: currentColor;overflow: hidden;" viewBox="0 0 1024 1024" version="1.1" xmlns="http://www.w3.org/2000/svg"><path d="M896 96H128c-54.4 0-96 41.6-96 96v480c0 54.4 41.6 96 96 96h64v128c0 12.8 6.4 22.4 16 28.8 6.4 3.2 9.6 3.2 16 3.2s12.8-3.2 19.2-6.4L457.6 768H896c54.4 0 96-41.6 96-96V192c0-54.4-41.6-96-96-96zM576 576H288c-19.2 0-32-12.8-32-32s12.8-32 32-32h288c19.2 0 32 12.8 32 32s-12.8 32-32 32z m160-224H288c-19.2 0-32-12.8-32-32s12.8-32 32-32h448c19.2 0 32 12.8 32 32s-12.8 32-32 32z"  /></svg>